<svg xmlns="http://www.w3.org/2000/svg" viewBox="0 0 1440 320">
  <path fill="#1a1b26" fill-opacity="1" d="M0,192L48,176C96,160,192,128,288,133.3C384,139,480,181,576,186.7C672,192,768,160,864,144C960,128,1056,128,1152,149.3C1248,171,1344,213,1392,234.7L1440,256L1440,0L1392,0C1344,0,1248,0,1152,0C1056,0,960,0,864,0C768,0,672,0,576,0C480,0,384,0,288,0C192,0,96,0,48,0L0,0Z"></path>
  <path fill="#7aa2f7" fill-opacity="0.6" d="M0,224L48,208C96,192,192,160,288,165.3C384,171,480,213,576,208C672,203,768,149,864,138.7C960,128,1056,160,1152,176C1248,192,1344,192,1392,192L1440,192L1440,0L1392,0C1344,0,1248,0,1152,0C1056,0,960,0,864,0C768,0,672,0,576,0C480,0,384,0,288,0C192,0,96,0,48,0L0,0Z"></path>
</svg>